{"title":"ffmpeg filter_complex beberapa filter bisu dan teks","draft":false,"url":"/ffmpeg-filter-complex-beberapa-filter-bisu-dan-teks-m5qx73fm","votes":"4","answers_count":"1","categories":["Komputer"],"tags":["audio","video","ffmpeg"],"snippet":"Saya memiliki 2 perintah ffmpeg bekerja dengan baik sendiri  ffmpeg -i test_video.mp4 -vcodec libx264 -filter_complex \"drawtext=fontfile=test.ttf:text=awesome:fontcolor=white:fontsize=20:x=0:y=10+th\"  test_video_text.mp4 -y  dan  ffmpeg -i test_video.mp4 -vcodec libx264 -filter_complex \"volume=0\"  test_video_text.mp4 -y  saat menggabungkan perintah ini...","body":"<p> Saya memiliki 2 perintah ffmpeg bekerja dengan baik sendiri </p> <pre><code>ffmpeg -i test_video.mp4 -vcodec libx264 -filter_complex \"drawtext=fontfile=test.ttf:text=awesome:fontcolor=white:fontsize=20:x=0:y=10+th\"  test_video_text.mp4 -y\n</code></pre> <p> dan </p> <pre><code>ffmpeg -i test_video.mp4 -vcodec libx264 -filter_complex \"volume=0\"  test_video_text.mp4 -y\n</code></pre> <p> saat menggabungkan perintah ini sebagai </p> <pre><code>ffmpeg -i test_video.mp4 -vcodec libx264 -filter_complex \"drawtext=fontfile=Lato-Light.ttf:text=awesome:fontcolor=white:fontsize=20:x=0:y=10+th,volume=0\"  test_video_text.mp4 -y\n</code></pre> <p> Mendapatkan kesalahan berikut: </p> <pre><code>Input #0, mov,mp4,m4a,3gp,3g2,mj2, from 'test_video.mp4':\n  Metadata:\n    major_brand     : mp42\n    minor_version   : 1\n    compatible_brands: mp41mp42isom\n    creation_time   : 2015-09-24 18:32:33\n  Duration: 00:00:09.87, start: 0.068254, bitrate: 235 kb/s\n    Stream #0:0(und): Video: h264 (Constrained Baseline) (avc1 / 0x31637661), yuv420p, 320x320, 183 kb/s, 29.67 fps, 29.67 tbr, 29673 tbn, 59.35 tbc (default)\n    Metadata:\n      creation_time   : 2015-09-24 18:32:33\n      handler_name    : Core Media Video\n    Stream #0:1(und): Audio: aac (HE-AAC) (mp4a / 0x6134706D), 44100 Hz, stereo, fltp, 48 kb/s (default)\n    Metadata:\n      creation_time   : 2015-09-24 18:32:33\n      handler_name    : Core Media Audio\n[Parsed_drawtext_0 @ 0x7f814af06260] Media type mismatch between the 'Parsed_drawtext_0' filter output pad 0 (video) and the 'Parsed_volume_1' filter input pad 0 (audio)\n[AVFilterGraph @ 0x7f814ae00360] Cannot create the link drawtext:0 -&gt; volume:0\nError initializing complex filters.\nInvalid argument\n</code></pre> <p> Mohon seseorang membantu saya apa yang saya lakukan salah? </p>","source":"https://superuser.com/questions/1070384/ffmpeg-filter-complex-multiple-filters-mute-and-text","author":"<a href=\"https://superuser.com/users/587773/shrhawk\" target=\"_blank\" rel=\"nofollow noopener\"><span itemprop=\"name\">shrhawk</span></a>","replies":[],"answers":[{"answer":"<p> Jika Anda memiliki filter kompleks dengan lebih dari satu input dan output, Anda perlu secara eksplisit menentukan aliran input dan output mana yang digunakan oleh filter mana. Selain itu, untuk memisahkan rantai filter, Anda harus menggunakan titik koma (<code>;</code>), bukan koma sederhana (<code>,</code>). Terakhir, Anda harus memetakan keluaran dari rantai filter tersebut ke file keluaran menggunakan opsi <code>-map</code>. </p> <pre><code>ffmpeg -y -i test_video.mp4 -vcodec libx264 -filter_complex \\\n  \"[0:v]drawtext=fontfile=Lato-Light.ttf:text=awesome:fontcolor=white:fontsize=20:\\\n   x=0:y=10+th[outv];\\\n   [0:a]volume=0[outa]\"\\\n   -map \"[outv]\" -map \"[outa]\"\\\n   test_video_text.mp4\n</code></pre> <p> Saya menyisipkan garis miring terbalik agar lebih mudah dibaca. Lihat <a href=\"http://ffmpeg.org/ffmpeg-all.html#Filtergraph-syntax-1\" rel=\"nofollow noopener\" target=\"_blank\"> <code>filtergraph</code> </a> dan <a href=\"http://ffmpeg.org/ffmpeg-all.html#filter_005fcomplex_005foption\" rel=\"nofollow noopener\" target=\"_blank\"> <code>filter_complex</code> dokumentasi </a> untuk lebih jelasnya. </p>\n\n<p> Selain itu, karena <code>-y</code> adalah opsi global, Anda harus memindahkannya ke awal perintah. </p>","votes":"7","source":"https://superuser.com/a/1070397","author":"<a href=\"https://superuser.com/users/48078/slhck\" target=\"_blank\" rel=\"nofollow noopener\"><span itemprop=\"name\">slhck</span></a>","replies":[{"reply":"Keren @slhck, bisakah Anda memberikan ringkasan apa yang dilakukan -map &quot;[outv]&quot; -map &quot;[outa]&quot; ini?","author":"<a href=\"https://superuser.com/users/587773/shrhawk\" target=\"_blank\" rel=\"nofollow noopener\">shrhawk</a>"},{"reply":"Ini pada dasarnya mengatakan, gunakan dua keluaran ini dari filter untuk file keluaran.","author":"<a href=\"https://superuser.com/users/48078/slhck\" target=\"_blank\" rel=\"nofollow noopener\">slhck</a>"}]}]}
